<!-- Uploaded to: SVG Repo, www.svgrepo.com, Transformed by: SVG Repo Mixer Tools -->
<svg fill="#ffffff" width="800px" height="800px" viewBox="0 0 24 24" id="airplane" data-name="Line Color" xmlns="http://www.w3.org/2000/svg" class="icon line-color" stroke="#ffffff">

<g id="SVGRepo_bgCarrier" stroke-width="0"/>

<g id="SVGRepo_tracerCarrier" stroke-linecap="round" stroke-linejoin="round"/>

<g id="SVGRepo_iconCarrier">

<path id="primary" d="M10,20h2.11a1,1,0,0,0,.81-.42L16.84,14H19a2,2,0,0,0,2-2h0a2,2,0,0,0-2-2H16.84L12.92,4.42A1,1,0,0,0,12.11,4H10l1,6H8L6.29,8.29A1,1,0,0,0,5.59,8H3l2,4L3,16H5.59a1,1,0,0,0,.7-.29L8,14h3Z" style="fill: none; stroke: #ffffff; stroke-linecap: round; stroke-linejoin: round; stroke-width: 2;"/>

</g>

</svg>